<svg width="130" height="144" viewBox="0 0 130 144" fill="none" xmlns="http://www.w3.org/2000/svg">
<path d="M34.2105 0H30.7895V3.42105H34.2105V0Z" fill="#DE5238"/>
<path d="M37.6316 0H34.2105V3.42105H37.6316V0Z" fill="#DE5238"/>
<path d="M41.0526 0H37.6316V3.42105H41.0526V0Z" fill="#8B2901"/>
<path d="M44.4737 0H41.0526V3.42105H44.4737V0Z" fill="#8B2901"/>
<path d="M47.8947 0H44.4737V3.42105H47.8947V0Z" fill="#8B2901"/>
<path d="M34.2105 3.42108H30.7895V6.84213H34.2105V3.42108Z" fill="#FA9441"/>
<path d="M37.6316 3.42108H34.2105V6.84213H37.6316V3.42108Z" fill="#FA9441"/>
<path d="M41.0526 3.42108H37.6316V6.84213H41.0526V3.42108Z" fill="#FA9441"/>
<path d="M44.4737 3.42108H41.0526V6.84213H44.4737V3.42108Z" fill="#FA9441"/>
<path d="M47.8947 3.42108H44.4737V6.84213H47.8947V3.42108Z" fill="#FA9441"/>
<path d="M34.2105 6.8421H30.7895V10.2632H34.2105V6.8421Z" fill="#FA9441"/>
<path d="M37.6316 6.8421H34.2105V10.2632H37.6316V6.8421Z" fill="#FA9441"/>
<path d="M41.0526 6.8421H37.6316V10.2632H41.0526V6.8421Z" fill="#FA9441"/>
<path d="M44.4737 6.8421H41.0526V10.2632H44.4737V6.8421Z" fill="#FA9441"/>
<path d="M47.8947 6.8421H44.4737V10.2632H47.8947V6.8421Z" fill="#FA9441"/>
<path d="M34.2105 10.2632H30.7895V13.6842H34.2105V10.2632Z" fill="#FA9441"/>
<path d="M37.6316 10.2632H34.2105V13.6842H37.6316V10.2632Z" fill="#FA9441"/>
<path d="M41.0526 10.2632H37.6316V13.6842H41.0526V10.2632Z" fill="#FA9441"/>
<path d="M44.4737 10.2632H41.0526V13.6842H44.4737V10.2632Z" fill="#FA9441"/>
<path d="M47.8947 10.2632H44.4737V13.6842H47.8947V10.2632Z" fill="#FA9441"/>
<path d="M34.2105 13.6842H30.7895V17.1053H34.2105V13.6842Z" fill="#FA9441"/>
<path d="M37.6316 13.6842H34.2105V17.1053H37.6316V13.6842Z" fill="#FA9441"/>
<path d="M41.0526 13.6842H37.6316V17.1053H41.0526V13.6842Z" fill="#FA9441"/>
<path d="M44.4737 13.6842H41.0526V17.1053H44.4737V13.6842Z" fill="#FA9441"/>
<path d="M47.8947 13.6842H44.4737V17.1053H47.8947V13.6842Z" fill="#FA9441"/>
<path d="M34.2105 17.1053H30.7895V20.5263H34.2105V17.1053Z" fill="#FA9441"/>
<path d="M37.6316 17.1053H34.2105V20.5263H37.6316V17.1053Z" fill="#FA9441"/>
<path d="M41.0526 17.1053H37.6316V20.5263H41.0526V17.1053Z" fill="#FA9441"/>
<path d="M44.4737 17.1053H41.0526V20.5263H44.4737V17.1053Z" fill="#FA9441"/>
<path d="M47.8947 17.1053H44.4737V20.5263H47.8947V17.1053Z" fill="#DE5238"/>
<path d="M34.2105 20.5263H30.7895V23.9474H34.2105V20.5263Z" fill="#FA9441"/>
<path d="M37.6316 20.5263H34.2105V23.9474H37.6316V20.5263Z" fill="#FA9441"/>
<path d="M41.0526 20.5263H37.6316V23.9474H41.0526V20.5263Z" fill="#FA9441"/>
<path d="M44.4737 20.5263H41.0526V23.9474H44.4737V20.5263Z" fill="#DE5238"/>
<path d="M47.8947 20.5263H44.4737V23.9474H47.8947V20.5263Z" fill="#FA9441"/>
<path d="M34.2105 23.9474H30.7895V27.3684H34.2105V23.9474Z" fill="#FA9441"/>
<path d="M37.6316 23.9474H34.2105V27.3684H37.6316V23.9474Z" fill="#FA9441"/>
<path d="M41.0526 23.9474H37.6316V27.3684H41.0526V23.9474Z" fill="#FA9441"/>
<path d="M44.4737 23.9474H41.0526V27.3684H44.4737V23.9474Z" fill="#DE5238"/>
<path d="M47.8947 23.9474H44.4737V27.3684H47.8947V23.9474Z" fill="#FA9441"/>
<path d="M34.2105 27.3684H30.7895V30.7895H34.2105V27.3684Z" fill="#FA9441"/>
<path d="M37.6316 27.3684H34.2105V30.7895H37.6316V27.3684Z" fill="#FA9441"/>
<path d="M41.0526 27.3684H37.6316V30.7895H41.0526V27.3684Z" fill="#FA9441"/>
<path d="M44.4737 27.3684H41.0526V30.7895H44.4737V27.3684Z" fill="#FA9441"/>
<path d="M47.8947 27.3684H44.4737V30.7895H47.8947V27.3684Z" fill="#19388A"/>
<path d="M34.2105 30.7895H30.7895V34.2105H34.2105V30.7895Z" fill="#FA9441"/>
<path d="M37.6316 30.7895H34.2105V34.2105H37.6316V30.7895Z" fill="#FA9441"/>
<path d="M41.0526 30.7895H37.6316V34.2105H41.0526V30.7895Z" fill="#FA9441"/>
<path d="M44.4737 30.7895H41.0526V34.2105H44.4737V30.7895Z" fill="#FA9441"/>
<path d="M47.8947 30.7895H44.4737V34.2105H47.8947V30.7895Z" fill="white"/>
<path d="M34.2105 34.2105H30.7895V37.6316H34.2105V34.2105Z" fill="#FA9441"/>
<path d="M37.6316 34.2105H34.2105V37.6316H37.6316V34.2105Z" fill="#FA9441"/>
<path d="M41.0526 34.2105H37.6316V37.6316H41.0526V34.2105Z" fill="#FA9441"/>
<path d="M44.4737 34.2105H41.0526V37.6316H44.4737V34.2105Z" fill="#FA9441"/>
<path d="M47.8947 34.2105H44.4737V37.6316H47.8947V34.2105Z" fill="white"/>
<path d="M34.2105 37.6316H30.7895V41.0526H34.2105V37.6316Z" fill="#FA9441"/>
<path d="M37.6316 37.6316H34.2105V41.0526H37.6316V37.6316Z" fill="#FA9441"/>
<path d="M41.0526 37.6316H37.6316V41.0526H41.0526V37.6316Z" fill="#FA9441"/>
<path d="M44.4737 37.6316H41.0526V41.0526H44.4737V37.6316Z" fill="#FA9441"/>
<path d="M47.8947 37.6316H44.4737V41.0526H47.8947V37.6316Z" fill="#8B2901"/>
<path d="M34.2105 41.0526H30.7895V44.4737H34.2105V41.0526Z" fill="#FA9441"/>
<path d="M37.6316 41.0526H34.2105V44.4737H37.6316V41.0526Z" fill="#FA9441"/>
<path d="M41.0526 41.0526H37.6316V44.4737H41.0526V41.0526Z" fill="#FA9441"/>
<path d="M44.4737 41.0526H41.0526V44.4737H44.4737V41.0526Z" fill="#FA9441"/>
<path d="M47.8947 41.0526H44.4737V44.4737H47.8947V41.0526Z" fill="#FA9441"/>
<path d="M34.2105 44.4737H30.7895V47.8947H34.2105V44.4737Z" fill="#FA9441"/>
<path d="M37.6316 44.4737H34.2105V47.8947H37.6316V44.4737Z" fill="#FA9441"/>
<path d="M41.0526 44.4737H37.6316V47.8947H41.0526V44.4737Z" fill="#FA9441"/>
<path d="M44.4737 44.4737H41.0526V47.8947H44.4737V44.4737Z" fill="#FA9441"/>
<path d="M47.8947 44.4737H44.4737V47.8947H47.8947V44.4737Z" fill="#DE5238"/>
<path d="M34.2105 47.8947H30.7895V51.3158H34.2105V47.8947Z" fill="#FA9441"/>
<path d="M37.6316 47.8947H34.2105V51.3158H37.6316V47.8947Z" fill="#FA9441"/>
<path d="M41.0526 47.8947H37.6316V51.3158H41.0526V47.8947Z" fill="#FA9441"/>
<path d="M44.4737 47.8947H41.0526V51.3158H44.4737V47.8947Z" fill="#DE5238"/>
<path d="M47.8947 47.8947H44.4737V51.3158H47.8947V47.8947Z" fill="#8B2901"/>
<path d="M34.2105 51.3158H30.7895V54.7368H34.2105V51.3158Z" fill="#FA9441"/>
<path d="M37.6316 51.3158H34.2105V54.7368H37.6316V51.3158Z" fill="#8B2901"/>
<path d="M41.0526 51.3158H37.6316V54.7368H41.0526V51.3158Z" fill="#8B2901"/>
<path d="M44.4737 51.3158H41.0526V54.7368H44.4737V51.3158Z" fill="#101010"/>
<path d="M47.8947 51.3158H44.4737V54.7368H47.8947V51.3158Z" fill="white"/>
<path d="M34.2105 54.7368H30.7895V58.1579H34.2105V54.7368Z" fill="#101010"/>
<path d="M37.6316 54.7368H34.2105V58.1579H37.6316V54.7368Z" fill="#E63900"/>
<path d="M41.0526 54.7368H37.6316V58.1579H41.0526V54.7368Z" fill="#E63900"/>
<path d="M44.4737 54.7368H41.0526V58.1579H44.4737V54.7368Z" fill="#8B2901"/>
<path d="M47.8947 54.7368H44.4737V58.1579H47.8947V54.7368Z" fill="#DE5238"/>
<path d="M34.2105 58.1579H30.7895V61.579H34.2105V58.1579Z" fill="#8B2901"/>
<path d="M37.6316 58.1579H34.2105V61.579H37.6316V58.1579Z" fill="#8B2901"/>
<path d="M41.0526 58.1579H37.6316V61.579H41.0526V58.1579Z" fill="#8B2901"/>
<path d="M44.4737 58.1579H41.0526V61.579H44.4737V58.1579Z" fill="#DE5238"/>
<path d="M47.8947 58.1579H44.4737V61.579H47.8947V58.1579Z" fill="#DE5238"/>
<path d="M34.2105 61.579H30.7895V65H34.2105V61.579Z" fill="#FA9441"/>
<path d="M37.6316 61.579H34.2105V65H37.6316V61.579Z" fill="#FA9441"/>
<path d="M41.0526 61.579H37.6316V65H41.0526V61.579Z" fill="#DE5238"/>
<path d="M44.4737 61.579H41.0526V65H44.4737V61.579Z" fill="#101010"/>
<path d="M47.8947 61.579H44.4737V65H47.8947V61.579Z" fill="#101010"/>
<path d="M34.2105 65H30.7895V68.4211H34.2105V65Z" fill="#101010"/>
<path d="M37.6316 65H34.2105V68.4211H37.6316V65Z" fill="#101010"/>
<path d="M41.0526 65H37.6316V68.4211H41.0526V65Z" fill="#101010"/>
<path d="M44.4737 65H41.0526V68.4211H44.4737V65Z" fill="#DE5238"/>
<path d="M47.8947 65H44.4737V68.4211H47.8947V65Z" fill="#DE5238"/>
<path d="M34.2105 68.421H30.7895V71.8421H34.2105V68.421Z" fill="#DE5238"/>
<path d="M37.6316 68.421H34.2105V71.8421H37.6316V68.421Z" fill="#DE5238"/>
<path d="M41.0526 68.421H37.6316V71.8421H41.0526V68.421Z" fill="#DE5238"/>
<path d="M44.4737 68.421H41.0526V71.8421H44.4737V68.421Z" fill="#DE5238"/>
<path d="M47.8947 68.421H44.4737V71.8421H47.8947V68.421Z" fill="#DE5238"/>
<path d="M34.2105 71.8421H30.7895V75.2632H34.2105V71.8421Z" fill="#8B2901"/>
<path d="M37.6316 71.8421H34.2105V75.2632H37.6316V71.8421Z" fill="#DE5238"/>
<path d="M41.0526 71.8421H37.6316V75.2632H41.0526V71.8421Z" fill="#E6AC5A"/>
<path d="M44.4737 71.8421H41.0526V75.2632H44.4737V71.8421Z" fill="#E6AC5A"/>
<path d="M47.8947 71.8421H44.4737V75.2632H47.8947V71.8421Z" fill="#E6AC5A"/>
<path d="M34.2105 75.2632H30.7895V78.6842H34.2105V75.2632Z" fill="#8B2901"/>
<path d="M37.6316 75.2632H34.2105V78.6842H37.6316V75.2632Z" fill="#E6AC5A"/>
<path d="M41.0526 75.2632H37.6316V78.6842H41.0526V75.2632Z" fill="#E6AC5A"/>
<path d="M44.4737 75.2632H41.0526V78.6842H44.4737V75.2632Z" fill="#E6AC5A"/>
<path d="M47.8947 75.2632H44.4737V78.6842H47.8947V75.2632Z" fill="#E6AC5A"/>
<path d="M34.2105 78.6842H30.7895V82.1053H34.2105V78.6842Z" fill="#DE5238"/>
<path d="M37.6316 78.6842H34.2105V82.1053H37.6316V78.6842Z" fill="#FBD57A"/>
<path d="M41.0526 78.6842H37.6316V82.1053H41.0526V78.6842Z" fill="#FBD57A"/>
<path d="M44.4737 78.6842H41.0526V82.1053H44.4737V78.6842Z" fill="#FBD57A"/>
<path d="M47.8947 78.6842H44.4737V82.1053H47.8947V78.6842Z" fill="#FBD57A"/>
<path d="M34.2105 82.1053H30.7895V85.5263H34.2105V82.1053Z" fill="#E6AC5A"/>
<path d="M37.6316 82.1053H34.2105V85.5263H37.6316V82.1053Z" fill="#FBD57A"/>
<path d="M41.0526 82.1053H37.6316V85.5263H41.0526V82.1053Z" fill="#FBD57A"/>
<path d="M44.4737 82.1053H41.0526V85.5263H44.4737V82.1053Z" fill="#FBD57A"/>
<path d="M47.8947 82.1053H44.4737V85.5263H47.8947V82.1053Z" fill="#FBD57A"/>
<path d="M34.2105 85.5263H30.7895V88.9474H34.2105V85.5263Z" fill="#FBD57A"/>
<path d="M37.6316 85.5263H34.2105V88.9474H37.6316V85.5263Z" fill="#FBD57A"/>
<path d="M41.0526 85.5263H37.6316V88.9474H41.0526V85.5263Z" fill="#FBD57A"/>
<path d="M44.4737 85.5263H41.0526V88.9474H44.4737V85.5263Z" fill="#FBD57A"/>
<path d="M47.8947 85.5263H44.4737V88.9474H47.8947V85.5263Z" fill="#FBD57A"/>
<path d="M34.2105 88.9474H30.7895V92.3684H34.2105V88.9474Z" fill="#FBD57A"/>
<path d="M37.6316 88.9474H34.2105V92.3684H37.6316V88.9474Z" fill="#FBD57A"/>
<path d="M41.0526 88.9474H37.6316V92.3684H41.0526V88.9474Z" fill="#FBD57A"/>
<path d="M44.4737 88.9474H41.0526V92.3684H44.4737V88.9474Z" fill="#FBD57A"/>
<path d="M47.8947 88.9474H44.4737V92.3684H47.8947V88.9474Z" fill="#FBD57A"/>
<path d="M34.2105 92.3684H30.7895V95.7895H34.2105V92.3684Z" fill="#FBD57A"/>
<path d="M37.6316 92.3684H34.2105V95.7895H37.6316V92.3684Z" fill="#FBD57A"/>
<path d="M41.0526 92.3684H37.6316V95.7895H41.0526V92.3684Z" fill="#FBD57A"/>
<path d="M44.4737 92.3684H41.0526V95.7895H44.4737V92.3684Z" fill="#FBD57A"/>
<path d="M47.8947 92.3684H44.4737V95.7895H47.8947V92.3684Z" fill="#FBD57A"/>
<path d="M34.2105 95.7895H30.7895V99.2105H34.2105V95.7895Z" fill="#FBD57A"/>
<path d="M37.6316 95.7895H34.2105V99.2105H37.6316V95.7895Z" fill="#FBD57A"/>
<path d="M41.0526 95.7895H37.6316V99.2105H41.0526V95.7895Z" fill="#FBD57A"/>
<path d="M44.4737 95.7895H41.0526V99.2105H44.4737V95.7895Z" fill="#FBD57A"/>
<path d="M47.8947 95.7895H44.4737V99.2105H47.8947V95.7895Z" fill="#FBD57A"/>
<path d="M34.2105 99.2105H30.7895V102.632H34.2105V99.2105Z" fill="#FBD57A"/>
<path d="M37.6316 99.2105H34.2105V102.632H37.6316V99.2105Z" fill="#FBD57A"/>
<path d="M41.0526 99.2105H37.6316V102.632H41.0526V99.2105Z" fill="#FBD57A"/>
<path d="M44.4737 99.2105H41.0526V102.632H44.4737V99.2105Z" fill="#FBD57A"/>
<path d="M47.8947 99.2105H44.4737V102.632H47.8947V99.2105Z" fill="#FBD57A"/>
<path d="M34.2105 102.632H30.7895V106.053H34.2105V102.632Z" fill="#FBD57A"/>
<path d="M37.6316 102.632H34.2105V106.053H37.6316V102.632Z" fill="#FBD57A"/>
<path d="M41.0526 102.632H37.6316V106.053H41.0526V102.632Z" fill="#FBD57A"/>
<path d="M44.4737 102.632H41.0526V106.053H44.4737V102.632Z" fill="#FBD57A"/>
<path d="M47.8947 102.632H44.4737V106.053H47.8947V102.632Z" fill="#FBD57A"/>
<path d="M34.2105 106.053H30.7895V109.474H34.2105V106.053Z" fill="#E6AC5A"/>
<path d="M37.6316 106.053H34.2105V109.474H37.6316V106.053Z" fill="#FBD57A"/>
<path d="M41.0526 106.053H37.6316V109.474H41.0526V106.053Z" fill="#FBD57A"/>
<path d="M44.4737 106.053H41.0526V109.474H44.4737V106.053Z" fill="#FBD57A"/>
<path d="M47.8947 106.053H44.4737V109.474H47.8947V106.053Z" fill="#FBD57A"/>
<path d="M34.2105 109.474H30.7895V112.895H34.2105V109.474Z" fill="#E6AC5A"/>
<path d="M37.6316 109.474H34.2105V112.895H37.6316V109.474Z" fill="#E6AC5A"/>
<path d="M41.0526 109.474H37.6316V112.895H41.0526V109.474Z" fill="#E6AC5A"/>
<path d="M44.4737 109.474H41.0526V112.895H44.4737V109.474Z" fill="#E6AC5A"/>
<path d="M47.8947 109.474H44.4737V112.895H47.8947V109.474Z" fill="#E6AC5A"/>
<path d="M34.2105 112.895H30.7895V116.316H34.2105V112.895Z" fill="#101010"/>
<path d="M37.6316 112.895H34.2105V116.316H37.6316V112.895Z" fill="#E6AC5A"/>
<path d="M41.0526 112.895H37.6316V116.316H41.0526V112.895Z" fill="#E6AC5A"/>
<path d="M44.4737 112.895H41.0526V116.316H44.4737V112.895Z" fill="#E6AC5A"/>
<path d="M47.8947 112.895H44.4737V116.316H47.8947V112.895Z" fill="#E6AC5A"/>
<path d="M34.2105 116.316H30.7895V119.737H34.2105V116.316Z" fill="#DE5238"/>
<path d="M37.6316 116.316H34.2105V119.737H37.6316V116.316Z" fill="#101010"/>
<path d="M41.0526 116.316H37.6316V119.737H41.0526V116.316Z" fill="#E6AC5A"/>
<path d="M44.4737 116.316H41.0526V119.737H44.4737V116.316Z" fill="#E6AC5A"/>
<path d="M47.8947 116.316H44.4737V119.737H47.8947V116.316Z" fill="#E6AC5A"/>
<path d="M34.2105 119.737H30.7895V123.158H34.2105V119.737Z" fill="#DE5238"/>
<path d="M37.6316 119.737H34.2105V123.158H37.6316V119.737Z" fill="#DE5238"/>
<path d="M41.0526 119.737H37.6316V123.158H41.0526V119.737Z" fill="#101010"/>
<path d="M44.4737 119.737H41.0526V123.158H44.4737V119.737Z" fill="#101010"/>
<path d="M47.8947 119.737H44.4737V123.158H47.8947V119.737Z" fill="#E6AC5A"/>
<path d="M34.2105 123.158H30.7895V126.579H34.2105V123.158Z" fill="#DE5238"/>
<path d="M30.7895 3.42108H27.3684V6.84213H30.7895V3.42108Z" fill="#DE5238"/>
<path d="M30.7895 6.8421H27.3684V10.2632H30.7895V6.8421Z" fill="#FA9441"/>
<path d="M30.7895 10.2632H27.3684V13.6842H30.7895V10.2632Z" fill="#FBC562"/>
<path d="M30.7895 13.6842H27.3684V17.1053H30.7895V13.6842Z" fill="#FBC562"/>
<path d="M30.7895 17.1053H27.3684V20.5263H30.7895V17.1053Z" fill="#FA9441"/>
<path d="M30.7895 20.5263H27.3684V23.9474H30.7895V20.5263Z" fill="#FA9441"/>
<path d="M30.7895 23.9474H27.3684V27.3684H30.7895V23.9474Z" fill="#FA9441"/>
<path d="M30.7895 27.3684H27.3684V30.7895H30.7895V27.3684Z" fill="#FA9441"/>
<path d="M30.7895 30.7895H27.3684V34.2105H30.7895V30.7895Z" fill="#FA9441"/>
<path d="M30.7895 34.2105H27.3684V37.6316H30.7895V34.2105Z" fill="#FA9441"/>
<path d="M30.7895 37.6316H27.3684V41.0526H30.7895V37.6316Z" fill="#FA9441"/>
<path d="M30.7895 41.0526H27.3684V44.4737H30.7895V41.0526Z" fill="#FA9441"/>
<path d="M30.7895 44.4737H27.3684V47.8947H30.7895V44.4737Z" fill="#DE5238"/>
<path d="M30.7895 47.8947H27.3684V51.3158H30.7895V47.8947Z" fill="#FA9441"/>
<path d="M30.7895 51.3158H27.3684V54.7368H30.7895V51.3158Z" fill="#FA9441"/>
<path d="M30.7895 54.7368H27.3684V58.1579H30.7895V54.7368Z" fill="#101010"/>
<path d="M30.7895 58.1579H27.3684V61.579H30.7895V58.1579Z" fill="#DE5238"/>
<path d="M30.7895 61.579H27.3684V65H30.7895V61.579Z" fill="#101010"/>
<path d="M30.7895 65H27.3684V68.4211H30.7895V65Z" fill="#DE5238"/>
<path d="M30.7895 68.421H27.3684V71.8421H30.7895V68.421Z" fill="#DE5238"/>
<path d="M30.7895 71.8421H27.3684V75.2632H30.7895V71.8421Z" fill="#DE5238"/>
<path d="M30.7895 75.2632H27.3684V78.6842H30.7895V75.2632Z" fill="#DE5238"/>
<path d="M30.7895 78.6842H27.3684V82.1053H30.7895V78.6842Z" fill="#8B2901"/>
<path d="M27.3684 3.42108H23.9474V6.84213H27.3684V3.42108Z" fill="#DE5238"/>
<path d="M27.3684 6.8421H23.9474V10.2632H27.3684V6.8421Z" fill="#FBC562"/>
<path d="M27.3684 10.2632H23.9474V13.6842H27.3684V10.2632Z" fill="#FBC562"/>
<path d="M27.3684 13.6842H23.9474V17.1053H27.3684V13.6842Z" fill="#FBC562"/>
<path d="M27.3684 17.1053H23.9474V20.5263H27.3684V17.1053Z" fill="#FBC562"/>
<path d="M27.3684 20.5263H23.9474V23.9474H27.3684V20.5263Z" fill="#FA9441"/>
<path d="M27.3684 23.9474H23.9474V27.3684H27.3684V23.9474Z" fill="#FA9441"/>
<path d="M27.3684 27.3684H23.9474V30.7895H27.3684V27.3684Z" fill="#FA9441"/>
<path d="M27.3684 30.7895H23.9474V34.2105H27.3684V30.7895Z" fill="#FA9441"/>
<path d="M27.3684 34.2105H23.9474V37.6316H27.3684V34.2105Z" fill="#FA9441"/>
<path d="M27.3684 37.6316H23.9474V41.0526H27.3684V37.6316Z" fill="#FA9441"/>
<path d="M27.3684 41.0526H23.9474V44.4737H27.3684V41.0526Z" fill="#FA9441"/>
<path d="M27.3684 44.4737H23.9474V47.8947H27.3684V44.4737Z" fill="#FA9441"/>
<path d="M27.3684 47.8947H23.9474V51.3158H27.3684V47.8947Z" fill="#FA9441"/>
<path d="M27.3684 51.3158H23.9474V54.7368H27.3684V51.3158Z" fill="#FA9441"/>
<path d="M27.3684 54.7368H23.9474V58.1579H27.3684V54.7368Z" fill="#101010"/>
<path d="M27.3684 58.1579H23.9474V61.579H27.3684V58.1579Z" fill="#DE5238"/>
<path d="M27.3684 61.579H23.9474V65H27.3684V61.579Z" fill="#101010"/>
<path d="M27.3684 65H23.9474V68.4211H27.3684V65Z" fill="#DE5238"/>
<path d="M27.3684 68.421H23.9474V71.8421H27.3684V68.421Z" fill="#DE5238"/>
<path d="M27.3684 71.8421H23.9474V75.2632H27.3684V71.8421Z" fill="#DE5238"/>
<path d="M27.3684 75.2632H23.9474V78.6842H27.3684V75.2632Z" fill="#DE5238"/>
<path d="M23.9474 6.8421H20.5263V10.2632H23.9474V6.8421Z" fill="#DE5238"/>
<path d="M23.9474 10.2632H20.5263V13.6842H23.9474V10.2632Z" fill="#FBC562"/>
<path d="M23.9474 13.6842H20.5263V17.1053H23.9474V13.6842Z" fill="#FBC562"/>
<path d="M23.9474 17.1053H20.5263V20.5263H23.9474V17.1053Z" fill="#FA9441"/>
<path d="M23.9474 20.5263H20.5263V23.9474H23.9474V20.5263Z" fill="#FA9441"/>
<path d="M23.9474 23.9474H20.5263V27.3684H23.9474V23.9474Z" fill="#FA9441"/>
<path d="M23.9474 27.3684H20.5263V30.7895H23.9474V27.3684Z" fill="#FA9441"/>
<path d="M23.9474 30.7895H20.5263V34.2105H23.9474V30.7895Z" fill="#FA9441"/>
<path d="M23.9474 34.2105H20.5263V37.6316H23.9474V34.2105Z" fill="#FA9441"/>
<path d="M23.9474 37.6316H20.5263V41.0526H23.9474V37.6316Z" fill="#FA9441"/>
<path d="M23.9474 41.0526H20.5263V44.4737H23.9474V41.0526Z" fill="#FBC562"/>
<path d="M23.9474 44.4737H20.5263V47.8947H23.9474V44.4737Z" fill="#FA9441"/>
<path d="M23.9474 47.8947H20.5263V51.3158H23.9474V47.8947Z" fill="#FA9441"/>
<path d="M23.9474 51.3158H20.5263V54.7368H23.9474V51.3158Z" fill="#FA9441"/>
<path d="M20.5263 10.2632H17.1053V13.6842H20.5263V10.2632Z" fill="#DE5238"/>
<path d="M20.5263 13.6842H17.1053V17.1053H20.5263V13.6842Z" fill="#DE5238"/>
<path d="M20.5263 17.1053H17.1053V20.5263H20.5263V17.1053Z" fill="#FA9441"/>
<path d="M20.5263 20.5263H17.1053V23.9474H20.5263V20.5263Z" fill="#FA9441"/>
<path d="M20.5263 23.9474H17.1053V27.3684H20.5263V23.9474Z" fill="#DE5238"/>
<path d="M20.5263 27.3684H17.1053V30.7895H20.5263V27.3684Z" fill="#DE5238"/>
<path d="M17.1053 17.1053H13.6842V20.5263H17.1053V17.1053Z" fill="#DE5238"/>
<path d="M17.1053 20.5263H13.6842V23.9474H17.1053V20.5263Z" fill="#DE5238"/>
<path d="M17.1053 23.9474H13.6842V27.3684H17.1053V23.9474Z" fill="#19388A"/>
<path d="M17.1053 27.3684H13.6842V30.7895H17.1053V27.3684Z" fill="#268BB4"/>
<path d="M20.5263 30.7895H17.1053V34.2105H20.5263V30.7895Z" fill="#FA9441"/>
<path d="M20.5263 34.2105H17.1053V37.6316H20.5263V34.2105Z" fill="#FA9441"/>
<path d="M20.5263 37.6316H17.1053V41.0526H20.5263V37.6316Z" fill="#FA9441"/>
<path d="M20.5263 41.0526H17.1053V44.4737H20.5263V41.0526Z" fill="#FBC562"/>
<path d="M20.5263 44.4737H17.1053V47.8947H20.5263V44.4737Z" fill="#FBC562"/>
<path d="M20.5263 47.8947H17.1053V51.3158H20.5263V47.8947Z" fill="#FA9441"/>
<path d="M20.5263 51.3158H17.1053V54.7368H20.5263V51.3158Z" fill="#101010"/>
<path d="M17.1053 34.2105H13.6842V37.6316H17.1053V34.2105Z" fill="#101010"/>
<path d="M17.1053 37.6316H13.6842V41.0526H17.1053V37.6316Z" fill="#19388A"/>
<path d="M17.1053 41.0526H13.6842V44.4737H17.1053V41.0526Z" fill="#FBC562"/>
<path d="M17.1053 44.4737H13.6842V47.8947H17.1053V44.4737Z" fill="#FBC562"/>
<path d="M13.6842 37.6316H10.2632V41.0526H13.6842V37.6316Z" fill="#8B2901"/>
<path d="M13.6842 41.0526H10.2632V44.4737H13.6842V41.0526Z" fill="#8B2901"/>
<path d="M13.6842 44.4737H10.2632V47.8947H13.6842V44.4737Z" fill="#8B2901"/>
<path d="M17.1053 47.8947H13.6842V51.3158H17.1053V47.8947Z" fill="#8B2901"/>
<path d="M17.1053 51.3158H13.6842V54.7368H17.1053V51.3158Z" fill="#101010"/>
<path d="M23.9474 54.7368H20.5263V58.1579H23.9474V54.7368Z" fill="#101010"/>
<path d="M23.9474 58.1579H20.5263V61.579H23.9474V58.1579Z" fill="#101010"/>
<path d="M23.9474 61.579H20.5263V65H23.9474V61.579Z" fill="#DE5238"/>
<path d="M23.9474 65H20.5263V68.4211H23.9474V65Z" fill="#DE5238"/>
<path d="M23.9474 68.421H20.5263V71.8421H23.9474V68.421Z" fill="#DE5238"/>
<path d="M23.9474 71.8421H20.5263V75.2632H23.9474V71.8421Z" fill="#DE5238"/>
<path d="M23.9474 75.2632H20.5263V78.6842H23.9474V75.2632Z" fill="#101010"/>
<path d="M20.5263 58.1579H17.1053V61.579H20.5263V58.1579Z" fill="#8B2901"/>
<path d="M20.5263 61.579H17.1053V65H20.5263V61.579Z" fill="#FA9441"/>
<path d="M20.5263 65H17.1053V68.4211H20.5263V65Z" fill="#FA9441"/>
<path d="M20.5263 68.421H17.1053V71.8421H20.5263V68.421Z" fill="#DE5238"/>
<path d="M20.5263 71.8421H17.1053V75.2632H20.5263V71.8421Z" fill="#DE5238"/>
<path d="M17.1053 58.1579H13.6842V61.579H17.1053V58.1579Z" fill="#8B2901"/>
<path d="M17.1053 61.579H13.6842V65H17.1053V61.579Z" fill="#FA9441"/>
<path d="M17.1053 65H13.6842V68.4211H17.1053V65Z" fill="#FA9441"/>
<path d="M17.1053 68.421H13.6842V71.8421H17.1053V68.421Z" fill="#DE5238"/>
<path d="M17.1053 71.8421H13.6842V75.2632H17.1053V71.8421Z" fill="#101010"/>
<path d="M13.6842 58.1579H10.2632V61.579H13.6842V58.1579Z" fill="#8B2901"/>
<path d="M13.6842 61.579H10.2632V65H13.6842V61.579Z" fill="#FA9441"/>
<path d="M13.6842 65H10.2632V68.4211H13.6842V65Z" fill="#DE5238"/>
<path d="M13.6842 68.421H10.2632V71.8421H13.6842V68.421Z" fill="#DE5238"/>
<path d="M10.2632 58.1579H6.8421V61.579H10.2632V58.1579Z" fill="#DE5238"/>
<path d="M10.2632 54.7368H6.8421V58.1579H10.2632V54.7368Z" fill="#8B2901"/>
<path d="M10.2632 61.579H6.8421V65H10.2632V61.579Z" fill="#DE5238"/>
<path d="M10.2632 65H6.8421V68.4211H10.2632V65Z" fill="#DE5238"/>
<path d="M10.2632 68.421H6.8421V71.8421H10.2632V68.421Z" fill="#101010"/>
<path d="M6.8421 58.1579H3.42105V61.579H6.8421V58.1579Z" fill="#101010"/>
<path d="M6.8421 54.7368H3.42105V58.1579H6.8421V54.7368Z" fill="#8B2901"/>
<path d="M6.8421 61.579H3.42105V65H6.8421V61.579Z" fill="#101010"/>
<path d="M6.8421 65H3.42105V68.4211H6.8421V65Z" fill="#DE5238"/>
<path d="M3.42105 65H0V68.4211H3.42105V65Z" fill="#101010"/>
<path d="M6.8421 68.421H3.42105V71.8421H6.8421V68.421Z" fill="#101010"/>
<path d="M13.6842 71.8421H10.2632V75.2632H13.6842V71.8421Z" fill="#101010"/>
<path d="M20.5263 75.2632H17.1053V78.6842H20.5263V75.2632Z" fill="#101010"/>
<path d="M27.3684 78.6842H23.9474V82.1053H27.3684V78.6842Z" fill="#101010"/>
<path d="M30.7895 82.1053H27.3684V85.5263H30.7895V82.1053Z" fill="#8B2901"/>
<path d="M30.7895 85.5263H27.3684V88.9474H30.7895V85.5263Z" fill="#8B2901"/>
<path d="M30.7895 88.9474H27.3684V92.3684H30.7895V88.9474Z" fill="#8B2901"/>
<path d="M30.7895 92.3684H27.3684V95.7895H30.7895V92.3684Z" fill="#E6AC5A"/>
<path d="M30.7895 95.7895H27.3684V99.2105H30.7895V95.7895Z" fill="#FBD57A"/>
<path d="M30.7895 99.2105H27.3684V102.632H30.7895V99.2105Z" fill="#FBD57A"/>
<path d="M30.7895 102.632H27.3684V106.053H30.7895V102.632Z" fill="#E6AC5A"/>
<path d="M30.7895 106.053H27.3684V109.474H30.7895V106.053Z" fill="#DE5238"/>
<path d="M30.7895 109.474H27.3684V112.895H30.7895V109.474Z" fill="#8B2901"/>
<path d="M30.7895 112.895H27.3684V116.316H30.7895V112.895Z" fill="#FA9441"/>
<path d="M30.7895 116.316H27.3684V119.737H30.7895V116.316Z" fill="#FA9441"/>
<path d="M30.7895 119.737H27.3684V123.158H30.7895V119.737Z" fill="#DE5238"/>
<path d="M30.7895 123.158H27.3684V126.579H30.7895V123.158Z" fill="#DE5238"/>
<path d="M27.3684 92.3684H23.9474V95.7895H27.3684V92.3684Z" fill="#8B2901"/>
<path d="M27.3684 95.7895H23.9474V99.2105H27.3684V95.7895Z" fill="#8B2901"/>
<path d="M27.3684 99.2105H23.9474V102.632H27.3684V99.2105Z" fill="#8B2901"/>
<path d="M27.3684 102.632H23.9474V106.053H27.3684V102.632Z" fill="#DE5238"/>
<path d="M27.3684 106.053H23.9474V109.474H27.3684V106.053Z" fill="#FA9441"/>
<path d="M27.3684 109.474H23.9474V112.895H27.3684V109.474Z" fill="#FA9441"/>
<path d="M27.3684 112.895H23.9474V116.316H27.3684V112.895Z" fill="#FA9441"/>
<path d="M27.3684 116.316H23.9474V119.737H27.3684V116.316Z" fill="#FA9441"/>
<path d="M27.3684 119.737H23.9474V123.158H27.3684V119.737Z" fill="#FA9441"/>
<path d="M27.3684 123.158H23.9474V126.579H27.3684V123.158Z" fill="#DE5238"/>
<path d="M23.9474 99.2105H20.5263V102.632H23.9474V99.2105Z" fill="#8B2901"/>
<path d="M23.9474 102.632H20.5263V106.053H23.9474V102.632Z" fill="#FA9441"/>
<path d="M23.9474 106.053H20.5263V109.474H23.9474V106.053Z" fill="#FA9441"/>
<path d="M23.9474 109.474H20.5263V112.895H23.9474V109.474Z" fill="#FA9441"/>
<path d="M23.9474 112.895H20.5263V116.316H23.9474V112.895Z" fill="#FA9441"/>
<path d="M23.9474 116.316H20.5263V119.737H23.9474V116.316Z" fill="#FA9441"/>
<path d="M23.9474 119.737H20.5263V123.158H23.9474V119.737Z" fill="#FA9441"/>
<path d="M20.5263 102.632H17.1053V106.053H20.5263V102.632Z" fill="#8B2901"/>
<path d="M20.5263 106.053H17.1053V109.474H20.5263V106.053Z" fill="#8B2901"/>
<path d="M20.5263 109.474H17.1053V112.895H20.5263V109.474Z" fill="#FA9441"/>
<path d="M20.5263 112.895H17.1053V116.316H20.5263V112.895Z" fill="#FA9441"/>
<path d="M20.5263 116.316H17.1053V119.737H20.5263V116.316Z" fill="#FA9441"/>
<path d="M17.1053 109.474H13.6842V112.895H17.1053V109.474Z" fill="#101010"/>
<path d="M17.1053 112.895H13.6842V116.316H17.1053V112.895Z" fill="#101010"/>
<path d="M17.1053 116.316H13.6842V119.737H17.1053V116.316Z" fill="#101010"/>
<path d="M20.5263 119.737H17.1053V123.158H20.5263V119.737Z" fill="#101010"/>
<path d="M23.9474 123.158H20.5263V126.579H23.9474V123.158Z" fill="#101010"/>
<path d="M37.6316 123.158H34.2105V126.579H37.6316V123.158Z" fill="#DE5238"/>
<path d="M41.0526 123.158H37.6316V126.579H41.0526V123.158Z" fill="#DE5238"/>
<path d="M44.4737 123.158H41.0526V126.579H44.4737V123.158Z" fill="#DE5238"/>
<path d="M34.2105 126.579H30.7895V130H34.2105V126.579Z" fill="#DE5238"/>
<path d="M30.7895 126.579H27.3684V130H30.7895V126.579Z" fill="#DE5238"/>
<path d="M27.3684 126.579H23.9474V130H27.3684V126.579Z" fill="#DE5238"/>
<path d="M23.9474 126.579H20.5263V130H23.9474V126.579Z" fill="#101010"/>
<path d="M37.6316 126.579H34.2105V130H37.6316V126.579Z" fill="#DE5238"/>
<path d="M41.0526 126.579H37.6316V130H41.0526V126.579Z" fill="#101010"/>
<path d="M34.2105 130H30.7895V133.421H34.2105V130Z" fill="#DE5238"/>
<path d="M30.7895 130H27.3684V133.421H30.7895V130Z" fill="#DE5238"/>
<path d="M27.3684 130H23.9474V133.421H27.3684V130Z" fill="#DE5238"/>
<path d="M23.9474 130H20.5263V133.421H23.9474V130Z" fill="#DE5238"/>
<path d="M37.6316 130H34.2105V133.421H37.6316V130Z" fill="#DE5238"/>
<path d="M34.2105 133.421H30.7895V136.842H34.2105V133.421Z" fill="#DE5238"/>
<path d="M30.7895 133.421H27.3684V136.842H30.7895V133.421Z" fill="#DE5238"/>
<path d="M27.3684 133.421H23.9474V136.842H27.3684V133.421Z" fill="white"/>
<path d="M23.9474 133.421H20.5263V136.842H23.9474V133.421Z" fill="#8B2901"/>
<path d="M34.2105 136.842H30.7895V140.263H34.2105V136.842Z" fill="#101010"/>
<path d="M30.7895 136.842H27.3684V140.263H30.7895V136.842Z" fill="#101010"/>
<path d="M27.3684 136.842H23.9474V140.263H27.3684V136.842Z" fill="#101010"/>
<path d="M23.9474 136.842H20.5263V140.263H23.9474V136.842Z" fill="#101010"/>
<path d="M20.5263 130H17.1053V133.421H20.5263V130Z" fill="#101010"/>
<path d="M20.5263 133.421H17.1053V136.842H20.5263V133.421Z" fill="white"/>
<path d="M17.1053 133.421H13.6842V136.842H17.1053V133.421Z" fill="#101010"/>
<path d="M20.5263 136.842H17.1053V140.263H20.5263V136.842Z" fill="#101010"/>
<path d="M37.6316 133.421H34.2105V136.842H37.6316V133.421Z" fill="#101010"/>
<path d="M41.0526 130H37.6316V133.421H41.0526V130Z" fill="#101010"/>
<path d="M44.4737 126.579H41.0526V130H44.4737V126.579Z" fill="#101010"/>
<path d="M47.8947 123.158H44.4737V126.579H47.8947V123.158Z" fill="#101010"/>
<path d="M51.3158 3.42108H47.8947V6.84213H51.3158V3.42108Z" fill="#8B2901"/>
<path d="M51.3158 6.8421H47.8947V10.2632H51.3158V6.8421Z" fill="#FA9441"/>
<path d="M51.3158 10.2632H47.8947V13.6842H51.3158V10.2632Z" fill="#FA9441"/>
<path d="M51.3158 13.6842H47.8947V17.1053H51.3158V13.6842Z" fill="#FA9441"/>
<path d="M51.3158 17.1053H47.8947V20.5263H51.3158V17.1053Z" fill="#FA9441"/>
<path d="M51.3158 20.5263H47.8947V23.9474H51.3158V20.5263Z" fill="#FA9441"/>
<path d="M51.3158 23.9474H47.8947V27.3684H51.3158V23.9474Z" fill="#19388A"/>
<path d="M51.3158 27.3684H47.8947V30.7895H51.3158V27.3684Z" fill="#19388A"/>
<path d="M51.3158 30.7895H47.8947V34.2105H51.3158V30.7895Z" fill="#101010"/>
<path d="M51.3158 34.2105H47.8947V37.6316H51.3158V34.2105Z" fill="#19388A"/>
<path d="M51.3158 37.6316H47.8947V41.0526H51.3158V37.6316Z" fill="#268BB4"/>
<path d="M51.3158 41.0526H47.8947V44.4737H51.3158V41.0526Z" fill="#DE5238"/>
<path d="M51.3158 44.4737H47.8947V47.8947H51.3158V44.4737Z" fill="#DE5238"/>
<path d="M51.3158 47.8947H47.8947V51.3158H51.3158V47.8947Z" fill="#8B2901"/>
<path d="M51.3158 51.3158H47.8947V54.7368H51.3158V51.3158Z" fill="#DE5238"/>
<path d="M51.3158 54.7368H47.8947V58.1579H51.3158V54.7368Z" fill="#DE5238"/>
<path d="M51.3158 58.1579H47.8947V61.579H51.3158V58.1579Z" fill="#101010"/>
<path d="M51.3158 61.579H47.8947V65H51.3158V61.579Z" fill="#DE5238"/>
<path d="M51.3158 65H47.8947V68.4211H51.3158V65Z" fill="#DE5238"/>
<path d="M51.3158 68.421H47.8947V71.8421H51.3158V68.421Z" fill="#DE5238"/>
<path d="M51.3158 71.8421H47.8947V75.2632H51.3158V71.8421Z" fill="#DE5238"/>
<path d="M51.3158 75.2632H47.8947V78.6842H51.3158V75.2632Z" fill="#E6AC5A"/>
<path d="M51.3158 78.6842H47.8947V82.1053H51.3158V78.6842Z" fill="#FBD57A"/>
<path d="M51.3158 82.1053H47.8947V85.5263H51.3158V82.1053Z" fill="#FBD57A"/>
<path d="M51.3158 85.5263H47.8947V88.9474H51.3158V85.5263Z" fill="#FBD57A"/>
<path d="M51.3158 88.9474H47.8947V92.3684H51.3158V88.9474Z" fill="#FBD57A"/>
<path d="M51.3158 92.3684H47.8947V95.7895H51.3158V92.3684Z" fill="#FBD57A"/>
<path d="M51.3158 95.7895H47.8947V99.2105H51.3158V95.7895Z" fill="#FBD57A"/>
<path d="M51.3158 99.2105H47.8947V102.632H51.3158V99.2105Z" fill="#FBD57A"/>
<path d="M51.3158 102.632H47.8947V106.053H51.3158V102.632Z" fill="#FBD57A"/>
<path d="M51.3158 106.053H47.8947V109.474H51.3158V106.053Z" fill="#E6AC5A"/>
<path d="M51.3158 109.474H47.8947V112.895H51.3158V109.474Z" fill="#E6AC5A"/>
<path d="M51.3158 112.895H47.8947V116.316H51.3158V112.895Z" fill="#E6AC5A"/>
<path d="M51.3158 116.316H47.8947V119.737H51.3158V116.316Z" fill="#E6AC5A"/>
<path d="M51.3158 119.737H47.8947V123.158H51.3158V119.737Z" fill="#E6AC5A"/>
<path d="M51.3158 123.158H47.8947V126.579H51.3158V123.158Z" fill="#101010"/>
<path d="M54.7368 3.42108H51.3158V6.84213H54.7368V3.42108Z" fill="#8B2901"/>
<path d="M54.7368 6.8421H51.3158V10.2632H54.7368V6.8421Z" fill="#FA9441"/>
<path d="M54.7368 10.2632H51.3158V13.6842H54.7368V10.2632Z" fill="#FA9441"/>
<path d="M54.7368 13.6842H51.3158V17.1053H54.7368V13.6842Z" fill="#FA9441"/>
<path d="M54.7368 17.1053H51.3158V20.5263H54.7368V17.1053Z" fill="#FA9441"/>
<path d="M54.7368 20.5263H51.3158V23.9474H54.7368V20.5263Z" fill="#FA9441"/>
<path d="M54.7368 23.9474H51.3158V27.3684H54.7368V23.9474Z" fill="#19388A"/>
<path d="M54.7368 27.3684H51.3158V30.7895H54.7368V27.3684Z" fill="#19388A"/>
<path d="M54.7368 30.7895H51.3158V34.2105H54.7368V30.7895Z" fill="#268BB4"/>
<path d="M54.7368 34.2105H51.3158V37.6316H54.7368V34.2105Z" fill="#34ACEE"/>
<path d="M54.7368 37.6316H51.3158V41.0526H54.7368V37.6316Z" fill="#34ACEE"/>
<path d="M54.7368 41.0526H51.3158V44.4737H54.7368V41.0526Z" fill="#DE5238"/>
<path d="M54.7368 44.4737H51.3158V47.8947H54.7368V44.4737Z" fill="#8B2901"/>
<path d="M54.7368 47.8947H51.3158V51.3158H54.7368V47.8947Z" fill="#DE5238"/>
<path d="M54.7368 51.3158H51.3158V54.7368H54.7368V51.3158Z" fill="#DE5238"/>
<path d="M54.7368 54.7368H51.3158V58.1579H54.7368V54.7368Z" fill="#DE5238"/>
<path d="M54.7368 58.1579H51.3158V61.579H54.7368V58.1579Z" fill="#DE5238"/>
<path d="M54.7368 61.579H51.3158V65H54.7368V61.579Z" fill="#DE5238"/>
<path d="M54.7368 65H51.3158V68.4211H54.7368V65Z" fill="#DE5238"/>
<path d="M54.7368 68.421H51.3158V71.8421H54.7368V68.421Z" fill="#DE5238"/>
<path d="M54.7368 71.8421H51.3158V75.2632H54.7368V71.8421Z" fill="#DE5238"/>
<path d="M54.7368 75.2632H51.3158V78.6842H54.7368V75.2632Z" fill="#DE5238"/>
<path d="M54.7368 78.6842H51.3158V82.1053H54.7368V78.6842Z" fill="#E6AC5A"/>
<path d="M54.7368 82.1053H51.3158V85.5263H54.7368V82.1053Z" fill="#FBD57A"/>
<path d="M54.7368 85.5263H51.3158V88.9474H54.7368V85.5263Z" fill="#FBD57A"/>
<path d="M54.7368 88.9474H51.3158V92.3684H54.7368V88.9474Z" fill="#FBD57A"/>
<path d="M54.7368 92.3684H51.3158V95.7895H54.7368V92.3684Z" fill="#FBD57A"/>
<path d="M54.7368 95.7895H51.3158V99.2105H54.7368V95.7895Z" fill="#FBD57A"/>
<path d="M54.7368 99.2105H51.3158V102.632H54.7368V99.2105Z" fill="#FBD57A"/>
<path d="M54.7368 102.632H51.3158V106.053H54.7368V102.632Z" fill="#FBD57A"/>
<path d="M54.7368 106.053H51.3158V109.474H54.7368V106.053Z" fill="#E6AC5A"/>
<path d="M54.7368 109.474H51.3158V112.895H54.7368V109.474Z" fill="#E6AC5A"/>
<path d="M54.7368 112.895H51.3158V116.316H54.7368V112.895Z" fill="#E6AC5A"/>
<path d="M54.7368 116.316H51.3158V119.737H54.7368V116.316Z" fill="#E6AC5A"/>
<path d="M54.7368 119.737H51.3158V123.158H54.7368V119.737Z" fill="#E6AC5A"/>
<path d="M54.7368 123.158H51.3158V126.579H54.7368V123.158Z" fill="#101010"/>
<path d="M58.1579 6.8421H54.7368V10.2632H58.1579V6.8421Z" fill="#101010"/>
<path d="M58.1579 10.2632H54.7368V13.6842H58.1579V10.2632Z" fill="#101010"/>
<path d="M58.1579 13.6842H54.7368V17.1053H58.1579V13.6842Z" fill="#FA9441"/>
<path d="M58.1579 17.1053H54.7368V20.5263H58.1579V17.1053Z" fill="#FA9441"/>
<path d="M58.1579 20.5263H54.7368V23.9474H58.1579V20.5263Z" fill="#FA9441"/>
<path d="M58.1579 23.9474H54.7368V27.3684H58.1579V23.9474Z" fill="#DE5238"/>
<path d="M58.1579 27.3684H54.7368V30.7895H58.1579V27.3684Z" fill="#8B2901"/>
<path d="M58.1579 30.7895H54.7368V34.2105H58.1579V30.7895Z" fill="#8B2901"/>
<path d="M58.1579 34.2105H54.7368V37.6316H58.1579V34.2105Z" fill="#8B2901"/>
<path d="M58.1579 37.6316H54.7368V41.0526H58.1579V37.6316Z" fill="#DE5238"/>
<path d="M58.1579 41.0526H54.7368V44.4737H58.1579V41.0526Z" fill="#DE5238"/>
<path d="M58.1579 44.4737H54.7368V47.8947H58.1579V44.4737Z" fill="#DE5238"/>
<path d="M58.1579 47.8947H54.7368V51.3158H58.1579V47.8947Z" fill="#DE5238"/>
<path d="M58.1579 51.3158H54.7368V54.7368H58.1579V51.3158Z" fill="#DE5238"/>
<path d="M58.1579 54.7368H54.7368V58.1579H58.1579V54.7368Z" fill="#DE5238"/>
<path d="M58.1579 58.1579H54.7368V61.579H58.1579V58.1579Z" fill="#DE5238"/>
<path d="M58.1579 61.579H54.7368V65H58.1579V61.579Z" fill="#DE5238"/>
<path d="M58.1579 65H54.7368V68.4211H58.1579V65Z" fill="#DE5238"/>
<path d="M58.1579 68.421H54.7368V71.8421H58.1579V68.421Z" fill="#DE5238"/>
<path d="M58.1579 71.8421H54.7368V75.2632H58.1579V71.8421Z" fill="#DE5238"/>
<path d="M58.1579 75.2632H54.7368V78.6842H58.1579V75.2632Z" fill="#DE5238"/>
<path d="M58.1579 78.6842H54.7368V82.1053H58.1579V78.6842Z" fill="#FA9441"/>
<path d="M58.1579 82.1053H54.7368V85.5263H58.1579V82.1053Z" fill="#FA9441"/>
<path d="M58.1579 85.5263H54.7368V88.9474H58.1579V85.5263Z" fill="#FA9441"/>
<path d="M58.1579 88.9474H54.7368V92.3684H58.1579V88.9474Z" fill="#FA9441"/>
<path d="M58.1579 92.3684H54.7368V95.7895H58.1579V92.3684Z" fill="#E6AC5A"/>
<path d="M58.1579 95.7895H54.7368V99.2105H58.1579V95.7895Z" fill="#FBD57A"/>
<path d="M58.1579 99.2105H54.7368V102.632H58.1579V99.2105Z" fill="#FBD57A"/>
<path d="M58.1579 102.632H54.7368V106.053H58.1579V102.632Z" fill="#E6AC5A"/>
<path d="M58.1579 106.053H54.7368V109.474H58.1579V106.053Z" fill="#DE5238"/>
<path d="M58.1579 109.474H54.7368V112.895H58.1579V109.474Z" fill="#DE5238"/>
<path d="M58.1579 112.895H54.7368V116.316H58.1579V112.895Z" fill="#DE5238"/>
<path d="M58.1579 116.316H54.7368V119.737H58.1579V116.316Z" fill="#8B2901"/>
<path d="M58.1579 119.737H54.7368V123.158H58.1579V119.737Z" fill="#8B2901"/>
<path d="M58.1579 123.158H54.7368V126.579H58.1579V123.158Z" fill="#101010"/>
<path d="M61.5789 13.6842H58.1579V17.1053H61.5789V13.6842Z" fill="#101010"/>
<path d="M61.5789 17.1053H58.1579V20.5263H61.5789V17.1053Z" fill="#101010"/>
<path d="M61.5789 20.5263H58.1579V23.9474H61.5789V20.5263Z" fill="#DE5238"/>
<path d="M61.5789 23.9474H58.1579V27.3684H61.5789V23.9474Z" fill="#DE5238"/>
<path d="M61.5789 27.3684H58.1579V30.7895H61.5789V27.3684Z" fill="#DE5238"/>
<path d="M61.5789 30.7895H58.1579V34.2105H61.5789V30.7895Z" fill="#DE5238"/>
<path d="M61.5789 34.2105H58.1579V37.6316H61.5789V34.2105Z" fill="#DE5238"/>
<path d="M61.5789 37.6316H58.1579V41.0526H61.5789V37.6316Z" fill="#DE5238"/>
<path d="M61.5789 41.0526H58.1579V44.4737H61.5789V41.0526Z" fill="#DE5238"/>
<path d="M61.5789 44.4737H58.1579V47.8947H61.5789V44.4737Z" fill="#DE5238"/>
<path d="M65 20.5263H61.5789V23.9474H65V20.5263Z" fill="#101010"/>
<path d="M65 23.9474H61.5789V27.3684H65V23.9474Z" fill="#101010"/>
<path d="M65 27.3684H61.5789V30.7895H65V27.3684Z" fill="#101010"/>
<path d="M65 30.7895H61.5789V34.2105H65V30.7895Z" fill="#101010"/>
<path d="M65 34.2105H61.5789V37.6316H65V34.2105Z" fill="#101010"/>
<path d="M65 37.6316H61.5789V41.0526H65V37.6316Z" fill="#101010"/>
<path d="M65 41.0526H61.5789V44.4737H65V41.0526Z" fill="#101010"/>
<path d="M65 44.4737H61.5789V47.8947H65V44.4737Z" fill="#101010"/>
<path d="M61.5789 47.8947H58.1579V51.3158H61.5789V47.8947Z" fill="#101010"/>
<path d="M61.5789 51.3158H58.1579V54.7368H61.5789V51.3158Z" fill="#101010"/>
<path d="M61.5789 54.7368H58.1579V58.1579H61.5789V54.7368Z" fill="#8B2901"/>
<path d="M61.5789 58.1579H58.1579V61.579H61.5789V58.1579Z" fill="#FA9441"/>
<path d="M61.5789 61.579H58.1579V65H61.5789V61.579Z" fill="#DE5238"/>
<path d="M61.5789 65H58.1579V68.4211H61.5789V65Z" fill="#DE5238"/>
<path d="M61.5789 68.421H58.1579V71.8421H61.5789V68.421Z" fill="#DE5238"/>
<path d="M61.5789 71.8421H58.1579V75.2632H61.5789V71.8421Z" fill="#DE5238"/>
<path d="M61.5789 75.2632H58.1579V78.6842H61.5789V75.2632Z" fill="#FA9441"/>
<path d="M61.5789 78.6842H58.1579V82.1053H61.5789V78.6842Z" fill="#FA9441"/>
<path d="M61.5789 82.1053H58.1579V85.5263H61.5789V82.1053Z" fill="#FA9441"/>
<path d="M61.5789 85.5263H58.1579V88.9474H61.5789V85.5263Z" fill="#FA9441"/>
<path d="M61.5789 88.9474H58.1579V92.3684H61.5789V88.9474Z" fill="#FA9441"/>
<path d="M61.5789 92.3684H58.1579V95.7895H61.5789V92.3684Z" fill="#FA9441"/>
<path d="M61.5789 95.7895H58.1579V99.2105H61.5789V95.7895Z" fill="#FA9441"/>
<path d="M61.5789 99.2105H58.1579V102.632H61.5789V99.2105Z" fill="#DE5238"/>
<path d="M61.5789 102.632H58.1579V106.053H61.5789V102.632Z" fill="#DE5238"/>
<path d="M61.5789 106.053H58.1579V109.474H61.5789V106.053Z" fill="#FA9441"/>
<path d="M61.5789 109.474H58.1579V112.895H61.5789V109.474Z" fill="#FA9441"/>
<path d="M61.5789 112.895H58.1579V116.316H61.5789V112.895Z" fill="#FA9441"/>
<path d="M61.5789 116.316H58.1579V119.737H61.5789V116.316Z" fill="#DE5238"/>
<path d="M61.5789 119.737H58.1579V123.158H61.5789V119.737Z" fill="#DE5238"/>
<path d="M61.5789 123.158H58.1579V126.579H61.5789V123.158Z" fill="#8B2901"/>
<path d="M65 54.7368H61.5789V58.1579H65V54.7368Z" fill="#8B2901"/>
<path d="M65 58.1579H61.5789V61.579H65V58.1579Z" fill="#FA9441"/>
<path d="M65 61.579H61.5789V65H65V61.579Z" fill="#FA9441"/>
<path d="M65 65H61.5789V68.4211H65V65Z" fill="#DE5238"/>
<path d="M65 68.421H61.5789V71.8421H65V68.421Z" fill="#DE5238"/>
<path d="M65 71.8421H61.5789V75.2632H65V71.8421Z" fill="#8B2901"/>
<path d="M65 75.2632H61.5789V78.6842H65V75.2632Z" fill="#FA9441"/>
<path d="M65 78.6842H61.5789V82.1053H65V78.6842Z" fill="#FA9441"/>
<path d="M65 82.1053H61.5789V85.5263H65V82.1053Z" fill="#FA9441"/>
<path d="M65 85.5263H61.5789V88.9474H65V85.5263Z" fill="#FA9441"/>
<path d="M65 88.9474H61.5789V92.3684H65V88.9474Z" fill="#FA9441"/>
<path d="M65 92.3684H61.5789V95.7895H65V92.3684Z" fill="#FA9441"/>
<path d="M65 95.7895H61.5789V99.2105H65V95.7895Z" fill="#FA9441"/>
<path d="M65 99.2105H61.5789V102.632H65V99.2105Z" fill="#FA9441"/>
<path d="M65 102.632H61.5789V106.053H65V102.632Z" fill="#FA9441"/>
<path d="M65 106.053H61.5789V109.474H65V106.053Z" fill="#FA9441"/>
<path d="M65 109.474H61.5789V112.895H65V109.474Z" fill="#FA9441"/>
<path d="M65 112.895H61.5789V116.316H65V112.895Z" fill="#FA9441"/>
<path d="M65 116.316H61.5789V119.737H65V116.316Z" fill="#FA9441"/>
<path d="M65 119.737H61.5789V123.158H65V119.737Z" fill="#DE5238"/>
<path d="M65 123.158H61.5789V126.579H65V123.158Z" fill="#DE5238"/>
<path d="M68.4211 54.7368H65V58.1579H68.4211V54.7368Z" fill="#8B2901"/>
<path d="M71.8421 51.3158H68.4211V54.7368H71.8421V51.3158Z" fill="#8B2901"/>
<path d="M75.2632 51.3158H71.8421V54.7368H75.2632V51.3158Z" fill="#8B2901"/>
<path d="M78.6842 51.3158H75.2632V54.7368H78.6842V51.3158Z" fill="#8B2901"/>
<path d="M82.1053 51.3158H78.6842V54.7368H82.1053V51.3158Z" fill="#8B2901"/>
<path d="M85.5263 51.3158H82.1053V54.7368H85.5263V51.3158Z" fill="#DE5238"/>
<path d="M88.9474 54.7368H85.5263V58.1579H88.9474V54.7368Z" fill="#101010"/>
<path d="M92.3684 58.1579H88.9474V61.579H92.3684V58.1579Z" fill="#101010"/>
<path d="M88.9474 61.579H85.5263V65H88.9474V61.579Z" fill="#101010"/>
<path d="M88.9474 58.1579H85.5263V61.579H88.9474V58.1579Z" fill="#DE5238"/>
<path d="M85.5263 54.7368H82.1053V58.1579H85.5263V54.7368Z" fill="#DE5238"/>
<path d="M85.5263 61.579H82.1053V65H85.5263V61.579Z" fill="#101010"/>
<path d="M85.5263 58.1579H82.1053V61.579H85.5263V58.1579Z" fill="#DE5238"/>
<path d="M82.1053 54.7368H78.6842V58.1579H82.1053V54.7368Z" fill="#FA9441"/>
<path d="M82.1053 61.579H78.6842V65H82.1053V61.579Z" fill="#DE5238"/>
<path d="M82.1053 58.1579H78.6842V61.579H82.1053V58.1579Z" fill="#DE5238"/>
<path d="M78.6842 54.7368H75.2632V58.1579H78.6842V54.7368Z" fill="#FA9441"/>
<path d="M78.6842 61.579H75.2632V65H78.6842V61.579Z" fill="#DE5238"/>
<path d="M78.6842 58.1579H75.2632V61.579H78.6842V58.1579Z" fill="#FA9441"/>
<path d="M75.2632 54.7368H71.8421V58.1579H75.2632V54.7368Z" fill="#FA9441"/>
<path d="M75.2632 61.579H71.8421V65H75.2632V61.579Z" fill="#DE5238"/>
<path d="M75.2632 58.1579H71.8421V61.579H75.2632V58.1579Z" fill="#FA9441"/>
<path d="M71.8421 54.7368H68.4211V58.1579H71.8421V54.7368Z" fill="#FA9441"/>
<path d="M71.8421 61.579H68.4211V65H71.8421V61.579Z" fill="#DE5238"/>
<path d="M82.1053 65H78.6842V68.4211H82.1053V65Z" fill="#101010"/>
<path d="M78.6842 65H75.2632V68.4211H78.6842V65Z" fill="#DE5238"/>
<path d="M75.2632 65H71.8421V68.4211H75.2632V65Z" fill="#DE5238"/>
<path d="M71.8421 65H68.4211V68.4211H71.8421V65Z" fill="#DE5238"/>
<path d="M78.6842 68.421H75.2632V71.8421H78.6842V68.421Z" fill="#101010"/>
<path d="M75.2632 68.421H71.8421V71.8421H75.2632V68.421Z" fill="#101010"/>
<path d="M71.8421 68.421H68.4211V71.8421H71.8421V68.421Z" fill="#DE5238"/>
<path d="M71.8421 71.8421H68.4211V75.2632H71.8421V71.8421Z" fill="#101010"/>
<path d="M71.8421 58.1579H68.4211V61.579H71.8421V58.1579Z" fill="#FA9441"/>
<path d="M85.5263 47.8947H82.1053V51.3158H85.5263V47.8947Z" fill="#8B2901"/>
<path d="M88.9474 47.8947H85.5263V51.3158H88.9474V47.8947Z" fill="#8B2901"/>
<path d="M88.9474 51.3158H85.5263V54.7368H88.9474V51.3158Z" fill="#101010"/>
<path d="M68.4211 58.1579H65V61.579H68.4211V58.1579Z" fill="#FA9441"/>
<path d="M68.4211 61.579H65V65H68.4211V61.579Z" fill="#FA9441"/>
<path d="M68.4211 65H65V68.4211H68.4211V65Z" fill="#DE5238"/>
<path d="M68.4211 68.421H65V71.8421H68.4211V68.421Z" fill="#DE5238"/>
<path d="M68.4211 71.8421H65V75.2632H68.4211V71.8421Z" fill="#8B2901"/>
<path d="M68.4211 75.2632H65V78.6842H68.4211V75.2632Z" fill="#101010"/>
<path d="M68.4211 78.6842H65V82.1053H68.4211V78.6842Z" fill="#101010"/>
<path d="M68.4211 82.1053H65V85.5263H68.4211V82.1053Z" fill="#DE5238"/>
<path d="M68.4211 85.5263H65V88.9474H68.4211V85.5263Z" fill="#FA9441"/>
<path d="M68.4211 88.9474H65V92.3684H68.4211V88.9474Z" fill="#FA9441"/>
<path d="M68.4211 92.3684H65V95.7895H68.4211V92.3684Z" fill="#FA9441"/>
<path d="M68.4211 95.7895H65V99.2105H68.4211V95.7895Z" fill="#FA9441"/>
<path d="M68.4211 99.2105H65V102.632H68.4211V99.2105Z" fill="#FA9441"/>
<path d="M68.4211 102.632H65V106.053H68.4211V102.632Z" fill="#FA9441"/>
<path d="M68.4211 106.053H65V109.474H68.4211V106.053Z" fill="#FA9441"/>
<path d="M68.4211 109.474H65V112.895H68.4211V109.474Z" fill="#FA9441"/>
<path d="M68.4211 112.895H65V116.316H68.4211V112.895Z" fill="#FA9441"/>
<path d="M68.4211 116.316H65V119.737H68.4211V116.316Z" fill="#FA9441"/>
<path d="M68.4211 119.737H65V123.158H68.4211V119.737Z" fill="#DE5238"/>
<path d="M68.4211 123.158H65V126.579H68.4211V123.158Z" fill="#DE5238"/>
<path d="M71.8421 82.1053H68.4211V85.5263H71.8421V82.1053Z" fill="#101010"/>
<path d="M71.8421 85.5263H68.4211V88.9474H71.8421V85.5263Z" fill="#101010"/>
<path d="M71.8421 88.9474H68.4211V92.3684H71.8421V88.9474Z" fill="#FA9441"/>
<path d="M71.8421 92.3684H68.4211V95.7895H71.8421V92.3684Z" fill="#FA9441"/>
<path d="M71.8421 95.7895H68.4211V99.2105H71.8421V95.7895Z" fill="#FA9441"/>
<path d="M71.8421 99.2105H68.4211V102.632H71.8421V99.2105Z" fill="#FA9441"/>
<path d="M71.8421 102.632H68.4211V106.053H71.8421V102.632Z" fill="#FA9441"/>
<path d="M71.8421 106.053H68.4211V109.474H71.8421V106.053Z" fill="#FA9441"/>
<path d="M71.8421 109.474H68.4211V112.895H71.8421V109.474Z" fill="#FA9441"/>
<path d="M71.8421 112.895H68.4211V116.316H71.8421V112.895Z" fill="#FA9441"/>
<path d="M71.8421 116.316H68.4211V119.737H71.8421V116.316Z" fill="#FA9441"/>
<path d="M71.8421 119.737H68.4211V123.158H71.8421V119.737Z" fill="#DE5238"/>
<path d="M71.8421 123.158H68.4211V126.579H71.8421V123.158Z" fill="#DE5238"/>
<path d="M75.2632 88.9474H71.8421V92.3684H75.2632V88.9474Z" fill="#101010"/>
<path d="M75.2632 92.3684H71.8421V95.7895H75.2632V92.3684Z" fill="#101010"/>
<path d="M75.2632 95.7895H71.8421V99.2105H75.2632V95.7895Z" fill="#101010"/>
<path d="M75.2632 99.2105H71.8421V102.632H75.2632V99.2105Z" fill="#FA9441"/>
<path d="M75.2632 102.632H71.8421V106.053H75.2632V102.632Z" fill="#FA9441"/>
<path d="M75.2632 106.053H71.8421V109.474H75.2632V106.053Z" fill="#FA9441"/>
<path d="M75.2632 109.474H71.8421V112.895H75.2632V109.474Z" fill="#FA9441"/>
<path d="M75.2632 112.895H71.8421V116.316H75.2632V112.895Z" fill="#FA9441"/>
<path d="M75.2632 116.316H71.8421V119.737H75.2632V116.316Z" fill="#DE5238"/>
<path d="M75.2632 119.737H71.8421V123.158H75.2632V119.737Z" fill="#DE5238"/>
<path d="M75.2632 123.158H71.8421V126.579H75.2632V123.158Z" fill="#DE5238"/>
<path d="M78.6842 99.2105H75.2632V102.632H78.6842V99.2105Z" fill="#101010"/>
<path d="M78.6842 102.632H75.2632V106.053H78.6842V102.632Z" fill="#DE5238"/>
<path d="M78.6842 106.053H75.2632V109.474H78.6842V106.053Z" fill="#FA9441"/>
<path d="M78.6842 109.474H75.2632V112.895H78.6842V109.474Z" fill="#FA9441"/>
<path d="M78.6842 112.895H75.2632V116.316H78.6842V112.895Z" fill="#DE5238"/>
<path d="M78.6842 116.316H75.2632V119.737H78.6842V116.316Z" fill="#DE5238"/>
<path d="M78.6842 119.737H75.2632V123.158H78.6842V119.737Z" fill="#DE5238"/>
<path d="M78.6842 123.158H75.2632V126.579H78.6842V123.158Z" fill="#DE5238"/>
<path d="M82.1053 102.632H78.6842V106.053H82.1053V102.632Z" fill="#101010"/>
<path d="M82.1053 106.053H78.6842V109.474H82.1053V106.053Z" fill="#101010"/>
<path d="M82.1053 109.474H78.6842V112.895H82.1053V109.474Z" fill="#DE5238"/>
<path d="M82.1053 112.895H78.6842V116.316H82.1053V112.895Z" fill="#DE5238"/>
<path d="M82.1053 116.316H78.6842V119.737H82.1053V116.316Z" fill="#DE5238"/>
<path d="M82.1053 119.737H78.6842V123.158H82.1053V119.737Z" fill="#DE5238"/>
<path d="M82.1053 123.158H78.6842V126.579H82.1053V123.158Z" fill="#101010"/>
<path d="M65 126.579H61.5789V130H65V126.579Z" fill="#8B2901"/>
<path d="M68.4211 126.579H65V130H68.4211V126.579Z" fill="#DE5238"/>
<path d="M71.8421 126.579H68.4211V130H71.8421V126.579Z" fill="#DE5238"/>
<path d="M75.2632 126.579H71.8421V130H75.2632V126.579Z" fill="#DE5238"/>
<path d="M78.6842 126.579H75.2632V130H78.6842V126.579Z" fill="#DE5238"/>
<path d="M82.1053 126.579H78.6842V130H82.1053V126.579Z" fill="#101010"/>
<path d="M65 130H61.5789V133.421H65V130Z" fill="#8B2901"/>
<path d="M68.4211 130H65V133.421H68.4211V130Z" fill="#FA9441"/>
<path d="M71.8421 130H68.4211V133.421H71.8421V130Z" fill="#FA9441"/>
<path d="M75.2632 130H71.8421V133.421H75.2632V130Z" fill="#FA9441"/>
<path d="M78.6842 130H75.2632V133.421H78.6842V130Z" fill="#DE5238"/>
<path d="M82.1053 130H78.6842V133.421H82.1053V130Z" fill="#101010"/>
<path d="M65 133.421H61.5789V136.842H65V133.421Z" fill="#8B2901"/>
<path d="M68.4211 133.421H65V136.842H68.4211V133.421Z" fill="#DE5238"/>
<path d="M71.8421 133.421H68.4211V136.842H71.8421V133.421Z" fill="#FA9441"/>
<path d="M75.2632 133.421H71.8421V136.842H75.2632V133.421Z" fill="#FA9441"/>
<path d="M78.6842 133.421H75.2632V136.842H78.6842V133.421Z" fill="#FA9441"/>
<path d="M82.1053 133.421H78.6842V136.842H82.1053V133.421Z" fill="#DE5238"/>
<path d="M85.5263 133.421H82.1053V136.842H85.5263V133.421Z" fill="#101010"/>
<path d="M68.4211 136.842H65V140.263H68.4211V136.842Z" fill="#101010"/>
<path d="M71.8421 136.842H68.4211V140.263H71.8421V136.842Z" fill="white"/>
<path d="M75.2632 136.842H71.8421V140.263H75.2632V136.842Z" fill="#8B2901"/>
<path d="M78.6842 136.842H75.2632V140.263H78.6842V136.842Z" fill="white"/>
<path d="M82.1053 136.842H78.6842V140.263H82.1053V136.842Z" fill="#8B2901"/>
<path d="M85.5263 136.842H82.1053V140.263H85.5263V136.842Z" fill="white"/>
<path d="M71.8421 140.263H68.4211V143.684H71.8421V140.263Z" fill="#101010"/>
<path d="M75.2632 140.263H71.8421V143.684H75.2632V140.263Z" fill="#101010"/>
<path d="M78.6842 140.263H75.2632V143.684H78.6842V140.263Z" fill="#101010"/>
<path d="M82.1053 140.263H78.6842V143.684H82.1053V140.263Z" fill="#101010"/>
<path d="M85.5263 140.263H82.1053V143.684H85.5263V140.263Z" fill="#101010"/>
<path d="M88.9474 136.842H85.5263V140.263H88.9474V136.842Z" fill="#101010"/>
<path d="M85.5263 102.632H82.1053V106.053H85.5263V102.632Z" fill="#8B2901"/>
<path d="M85.5263 106.053H82.1053V109.474H85.5263V106.053Z" fill="#DE5238"/>
<path d="M85.5263 109.474H82.1053V112.895H85.5263V109.474Z" fill="#101010"/>
<path d="M85.5263 112.895H82.1053V116.316H85.5263V112.895Z" fill="#101010"/>
<path d="M85.5263 116.316H82.1053V119.737H85.5263V116.316Z" fill="#101010"/>
<path d="M85.5263 119.737H82.1053V123.158H85.5263V119.737Z" fill="#101010"/>
<path d="M85.5263 123.158H82.1053V126.579H85.5263V123.158Z" fill="#8B2901"/>
<path d="M88.9474 102.632H85.5263V106.053H88.9474V102.632Z" fill="#8B2901"/>
<path d="M88.9474 106.053H85.5263V109.474H88.9474V106.053Z" fill="#DE5238"/>
<path d="M88.9474 109.474H85.5263V112.895H88.9474V109.474Z" fill="#DE5238"/>
<path d="M88.9474 112.895H85.5263V116.316H88.9474V112.895Z" fill="#DE5238"/>
<path d="M88.9474 116.316H85.5263V119.737H88.9474V116.316Z" fill="#E6AC5A"/>
<path d="M88.9474 119.737H85.5263V123.158H88.9474V119.737Z" fill="#E6AC5A"/>
<path d="M88.9474 123.158H85.5263V126.579H88.9474V123.158Z" fill="#8B2901"/>
<path d="M92.3684 102.632H88.9474V106.053H92.3684V102.632Z" fill="#8B2901"/>
<path d="M92.3684 106.053H88.9474V109.474H92.3684V106.053Z" fill="#DE5238"/>
<path d="M92.3684 109.474H88.9474V112.895H92.3684V109.474Z" fill="#DE5238"/>
<path d="M92.3684 112.895H88.9474V116.316H92.3684V112.895Z" fill="#DE5238"/>
<path d="M92.3684 116.316H88.9474V119.737H92.3684V116.316Z" fill="#E6AC5A"/>
<path d="M92.3684 119.737H88.9474V123.158H92.3684V119.737Z" fill="#E6AC5A"/>
<path d="M95.7895 102.632H92.3684V106.053H95.7895V102.632Z" fill="#FA9441"/>
<path d="M95.7895 99.2105H92.3684V102.632H95.7895V99.2105Z" fill="#8B2901"/>
<path d="M99.2105 99.2105H95.7895V102.632H99.2105V99.2105Z" fill="#8B2901"/>
<path d="M102.632 99.2105H99.2105V102.632H102.632V99.2105Z" fill="#8B2901"/>
<path d="M106.053 99.2105H102.632V102.632H106.053V99.2105Z" fill="#FA9441"/>
<path d="M106.053 95.7895H102.632V99.2105H106.053V95.7895Z" fill="#8B2901"/>
<path d="M95.7895 106.053H92.3684V109.474H95.7895V106.053Z" fill="#DE5238"/>
<path d="M95.7895 109.474H92.3684V112.895H95.7895V109.474Z" fill="#DE5238"/>
<path d="M95.7895 112.895H92.3684V116.316H95.7895V112.895Z" fill="#DE5238"/>
<path d="M95.7895 116.316H92.3684V119.737H95.7895V116.316Z" fill="#E6AC5A"/>
<path d="M95.7895 119.737H92.3684V123.158H95.7895V119.737Z" fill="#8B2901"/>
<path d="M99.2105 102.632H95.7895V106.053H99.2105V102.632Z" fill="#FA9441"/>
<path d="M99.2105 106.053H95.7895V109.474H99.2105V106.053Z" fill="#FA9441"/>
<path d="M99.2105 109.474H95.7895V112.895H99.2105V109.474Z" fill="#DE5238"/>
<path d="M99.2105 112.895H95.7895V116.316H99.2105V112.895Z" fill="#E6AC5A"/>
<path d="M99.2105 116.316H95.7895V119.737H99.2105V116.316Z" fill="#E6AC5A"/>
<path d="M102.632 102.632H99.2105V106.053H102.632V102.632Z" fill="#FA9441"/>
<path d="M102.632 106.053H99.2105V109.474H102.632V106.053Z" fill="#FA9441"/>
<path d="M102.632 109.474H99.2105V112.895H102.632V109.474Z" fill="#DE5238"/>
<path d="M102.632 112.895H99.2105V116.316H102.632V112.895Z" fill="#E6AC5A"/>
<path d="M102.632 116.316H99.2105V119.737H102.632V116.316Z" fill="#101010"/>
<path d="M106.053 102.632H102.632V106.053H106.053V102.632Z" fill="#FA9441"/>
<path d="M106.053 106.053H102.632V109.474H106.053V106.053Z" fill="#DE5238"/>
<path d="M106.053 109.474H102.632V112.895H106.053V109.474Z" fill="#E6AC5A"/>
<path d="M106.053 112.895H102.632V116.316H106.053V112.895Z" fill="#E6AC5A"/>
<path d="M109.474 99.2105H106.053V102.632H109.474V99.2105Z" fill="#FA9441"/>
<path d="M109.474 95.7895H106.053V99.2105H109.474V95.7895Z" fill="#8B2901"/>
<path d="M109.474 102.632H106.053V106.053H109.474V102.632Z" fill="#FA9441"/>
<path d="M109.474 106.053H106.053V109.474H109.474V106.053Z" fill="#E6AC5A"/>
<path d="M109.474 109.474H106.053V112.895H109.474V109.474Z" fill="#E6AC5A"/>
<path d="M112.895 99.2105H109.474V102.632H112.895V99.2105Z" fill="#FA9441"/>
<path d="M112.895 95.7895H109.474V99.2105H112.895V95.7895Z" fill="#FA9441"/>
<path d="M112.895 102.632H109.474V106.053H112.895V102.632Z" fill="#DE5238"/>
<path d="M112.895 106.053H109.474V109.474H112.895V106.053Z" fill="#E6AC5A"/>
<path d="M116.316 99.2105H112.895V102.632H116.316V99.2105Z" fill="#DE5238"/>
<path d="M116.316 95.7895H112.895V99.2105H116.316V95.7895Z" fill="#FA9441"/>
<path d="M116.316 102.632H112.895V106.053H116.316V102.632Z" fill="#E6AC5A"/>
<path d="M119.737 99.2105H116.316V102.632H119.737V99.2105Z" fill="#101010"/>
<path d="M119.737 95.7895H116.316V99.2105H119.737V95.7895Z" fill="#DE5238"/>
<path d="M123.158 95.7895H119.737V99.2105H123.158V95.7895Z" fill="#101010"/>
<path d="M112.895 92.3684H109.474V95.7895H112.895V92.3684Z" fill="#8B2901"/>
<path d="M116.316 92.3684H112.895V95.7895H116.316V92.3684Z" fill="#FA9441"/>
<path d="M119.737 92.3684H116.316V95.7895H119.737V92.3684Z" fill="#FA9441"/>
<path d="M123.158 92.3684H119.737V95.7895H123.158V92.3684Z" fill="#101010"/>
<path d="M116.316 88.9474H112.895V92.3684H116.316V88.9474Z" fill="#8B2901"/>
<path d="M119.737 88.9474H116.316V92.3684H119.737V88.9474Z" fill="#FA9441"/>
<path d="M123.158 88.9474H119.737V92.3684H123.158V88.9474Z" fill="#101010"/>
<path d="M116.316 85.5263H112.895V88.9474H116.316V85.5263Z" fill="#8B2901"/>
<path d="M119.737 85.5263H116.316V88.9474H119.737V85.5263Z" fill="#FBD57A"/>
<path d="M123.158 85.5263H119.737V88.9474H123.158V85.5263Z" fill="#101010"/>
<path d="M116.316 82.1053H112.895V85.5263H116.316V82.1053Z" fill="#8B2901"/>
<path d="M119.737 82.1053H116.316V85.5263H119.737V82.1053Z" fill="#8B2901"/>
<path d="M123.158 82.1053H119.737V85.5263H123.158V82.1053Z" fill="#E63900"/>
<path d="M116.316 78.6842H112.895V82.1053H116.316V78.6842Z" fill="#E63900"/>
<path d="M119.737 78.6842H116.316V82.1053H119.737V78.6842Z" fill="#8B2901"/>
<path d="M123.158 78.6842H119.737V82.1053H123.158V78.6842Z" fill="#E63900"/>
<path d="M116.316 75.2632H112.895V78.6842H116.316V75.2632Z" fill="#E63900"/>
<path d="M119.737 75.2632H116.316V78.6842H119.737V75.2632Z" fill="#F6A400"/>
<path d="M123.158 75.2632H119.737V78.6842H123.158V75.2632Z" fill="#F6A400"/>
<path d="M116.316 71.8421H112.895V75.2632H116.316V71.8421Z" fill="#F6A400"/>
<path d="M119.737 71.8421H116.316V75.2632H119.737V71.8421Z" fill="#FBD409"/>
<path d="M123.158 71.8421H119.737V75.2632H123.158V71.8421Z" fill="#FBD409"/>
<path d="M116.316 68.421H112.895V71.8421H116.316V68.421Z" fill="#FBD409"/>
<path d="M119.737 68.421H116.316V71.8421H119.737V68.421Z" fill="#FBD409"/>
<path d="M123.158 68.421H119.737V71.8421H123.158V68.421Z" fill="#FBD409"/>
<path d="M116.316 65H112.895V68.4211H116.316V65Z" fill="#E63900"/>
<path d="M119.737 65H116.316V68.4211H119.737V65Z" fill="#FBD409"/>
<path d="M123.158 65H119.737V68.4211H123.158V65Z" fill="#FBD409"/>
<path d="M116.316 61.579H112.895V65H116.316V61.579Z" fill="#E63900"/>
<path d="M119.737 61.579H116.316V65H119.737V61.579Z" fill="#E63900"/>
<path d="M123.158 61.579H119.737V65H123.158V61.579Z" fill="#FBD409"/>
<path d="M116.316 58.1579H112.895V61.579H116.316V58.1579Z" fill="#E63900"/>
<path d="M119.737 58.1579H116.316V61.579H119.737V58.1579Z" fill="#E63900"/>
<path d="M123.158 58.1579H119.737V61.579H123.158V58.1579Z" fill="#FBD409"/>
<path d="M126.579 78.6842H123.158V82.1053H126.579V78.6842Z" fill="#E63900"/>
<path d="M126.579 75.2632H123.158V78.6842H126.579V75.2632Z" fill="#E63900"/>
<path d="M126.579 71.8421H123.158V75.2632H126.579V71.8421Z" fill="#F6A400"/>
<path d="M126.579 68.421H123.158V71.8421H126.579V68.421Z" fill="#FBD409"/>
<path d="M126.579 65H123.158V68.4211H126.579V65Z" fill="#FBD409"/>
<path d="M126.579 61.579H123.158V65H126.579V61.579Z" fill="#F6A400"/>
<path d="M130 75.2632H126.579V78.6842H130V75.2632Z" fill="#E63900"/>
<path d="M130 71.8421H126.579V75.2632H130V71.8421Z" fill="#E63900"/>
<path d="M130 68.421H126.579V71.8421H130V68.421Z" fill="#E63900"/>
<path d="M130 65H126.579V68.4211H130V65Z" fill="#E63900"/>
<path d="M130 61.579H126.579V65H130V61.579Z" fill="#E63900"/>
<path d="M126.579 58.1579H123.158V61.579H126.579V58.1579Z" fill="#E63900"/>
<path d="M116.316 54.7368H112.895V58.1579H116.316V54.7368Z" fill="#E63900"/>
<path d="M119.737 54.7368H116.316V58.1579H119.737V54.7368Z" fill="#FBD409"/>
<path d="M123.158 54.7368H119.737V58.1579H123.158V54.7368Z" fill="#F6A400"/>
<path d="M116.316 51.3158H112.895V54.7368H116.316V51.3158Z" fill="#FBD409"/>
<path d="M119.737 51.3158H116.316V54.7368H119.737V51.3158Z" fill="#FBD409"/>
<path d="M109.474 51.3158H106.053V54.7368H109.474V51.3158Z" fill="#E63900"/>
<path d="M112.895 51.3158H109.474V54.7368H112.895V51.3158Z" fill="#F6A400"/>
<path d="M109.474 54.7368H106.053V58.1579H109.474V54.7368Z" fill="#E63900"/>
<path d="M112.895 54.7368H109.474V58.1579H112.895V54.7368Z" fill="#FBD409"/>
<path d="M109.474 58.1579H106.053V61.579H109.474V58.1579Z" fill="#E63900"/>
<path d="M112.895 58.1579H109.474V61.579H112.895V58.1579Z" fill="#E63900"/>
<path d="M109.474 61.579H106.053V65H109.474V61.579Z" fill="#E63900"/>
<path d="M112.895 61.579H109.474V65H112.895V61.579Z" fill="#F6A400"/>
<path d="M109.474 65H106.053V68.4211H109.474V65Z" fill="#FBD409"/>
<path d="M112.895 65H109.474V68.4211H112.895V65Z" fill="#FBD409"/>
<path d="M109.474 68.421H106.053V71.8421H109.474V68.421Z" fill="#F6A400"/>
<path d="M112.895 68.421H109.474V71.8421H112.895V68.421Z" fill="#FBD409"/>
<path d="M109.474 71.8421H106.053V75.2632H109.474V71.8421Z" fill="#F6A400"/>
<path d="M106.053 58.1579H102.632V61.579H106.053V58.1579Z" fill="#E63900"/>
<path d="M106.053 61.579H102.632V65H106.053V61.579Z" fill="#E63900"/>
<path d="M106.053 65H102.632V68.4211H106.053V65Z" fill="#E63900"/>
<path d="M106.053 68.421H102.632V71.8421H106.053V68.421Z" fill="#E63900"/>
<path d="M106.053 71.8421H102.632V75.2632H106.053V71.8421Z" fill="#E63900"/>
<path d="M112.895 71.8421H109.474V75.2632H112.895V71.8421Z" fill="#F6A400"/>
<path d="M109.474 75.2632H106.053V78.6842H109.474V75.2632Z" fill="#E63900"/>
<path d="M112.895 75.2632H109.474V78.6842H112.895V75.2632Z" fill="#F6A400"/>
<path d="M112.895 78.6842H109.474V82.1053H112.895V78.6842Z" fill="#E63900"/>
<path d="M119.737 47.8947H116.316V51.3158H119.737V47.8947Z" fill="#F6A400"/>
<path d="M116.316 47.8947H112.895V51.3158H116.316V47.8947Z" fill="#FBD409"/>
<path d="M112.895 47.8947H109.474V51.3158H112.895V47.8947Z" fill="#FBD409"/>
<path d="M109.474 47.8947H106.053V51.3158H109.474V47.8947Z" fill="#E63900"/>
<path d="M116.316 44.4737H112.895V47.8947H116.316V44.4737Z" fill="#FBD409"/>
<path d="M112.895 44.4737H109.474V47.8947H112.895V44.4737Z" fill="#F6A400"/>
<path d="M116.316 41.0526H112.895V44.4737H116.316V41.0526Z" fill="#FBD409"/>
<path d="M112.895 41.0526H109.474V44.4737H112.895V41.0526Z" fill="#E63900"/>
<path d="M116.316 37.6316H112.895V41.0526H116.316V37.6316Z" fill="#FBD409"/>
<path d="M112.895 37.6316H109.474V41.0526H112.895V37.6316Z" fill="#E63900"/>
<path d="M112.895 34.2105H109.474V37.6316H112.895V34.2105Z" fill="#E63900"/>
<path d="M109.474 44.4737H106.053V47.8947H109.474V44.4737Z" fill="#E63900"/>
<path d="M123.158 51.3158H119.737V54.7368H123.158V51.3158Z" fill="#E63900"/>
<path d="M119.737 102.632H116.316V106.053H119.737V102.632Z" fill="#101010"/>
<path d="M116.316 106.053H112.895V109.474H116.316V106.053Z" fill="#101010"/>
<path d="M112.895 109.474H109.474V112.895H112.895V109.474Z" fill="#101010"/>
<path d="M109.474 112.895H106.053V116.316H109.474V112.895Z" fill="#101010"/>
<path d="M106.053 116.316H102.632V119.737H106.053V116.316Z" fill="#101010"/>
<path d="M99.2105 119.737H95.7895V123.158H99.2105V119.737Z" fill="#8B2901"/>
<path d="M92.3684 123.158H88.9474V126.579H92.3684V123.158Z" fill="#8B2901"/>
</svg>
